<svg width="24" height="24" viewBox="0 0 24 24" fill="none" xmlns="http://www.w3.org/2000/svg">
<path d="M12.0005 14.5205C13.3922 14.5205 14.5205 13.3922 14.5205 12.0005C14.5205 10.6087 13.3922 9.48047 12.0005 9.48047C10.6087 9.48047 9.48047 10.6087 9.48047 12.0005C9.48047 13.3922 10.6087 14.5205 12.0005 14.5205Z" fill="#FEFEFE"/>
<path d="M12 0C5.37259 0 0 5.37259 0 12C0 18.6274 5.37259 24 12 24C18.6274 24 24 18.6274 24 12C24 5.37259 18.6274 0 12 0ZM19.414 15.0499C19.3564 16.1908 19.0358 17.3158 18.2044 18.1384C17.3649 18.9688 16.2346 19.2782 15.0827 19.3352H8.91734C7.76534 19.2782 6.63514 18.969 5.79566 18.1384C4.96421 17.3158 4.64366 16.1908 4.58606 15.0499V8.95008C4.64366 7.80922 4.96426 6.68419 5.79566 5.86157C6.63514 5.03117 7.76549 4.72176 8.91734 4.66478H15.0827C16.2347 4.72176 17.3649 5.03102 18.2043 5.86157C19.0358 6.68419 19.3563 7.80922 19.4139 8.95008L19.414 15.0499Z" fill="#FEFEFE"/>
<path d="M15.0038 6.0553C13.502 6.01412 10.4963 6.01412 8.99455 6.0553C8.21306 6.07676 7.32713 6.2713 6.77033 6.86602C6.19173 7.48421 5.97309 8.23109 5.95092 9.06663C5.91194 10.5331 5.95092 14.9347 5.95092 14.9347C5.97631 15.7702 6.19173 16.5171 6.77033 17.1353C7.32713 17.7302 8.21306 17.9246 8.99455 17.9461C10.4963 17.9872 13.502 17.9872 15.0038 17.9461C15.7853 17.9246 16.6712 17.7301 17.228 17.1353C17.8066 16.5171 18.0252 15.7703 18.0474 14.9347V9.06663C18.0252 8.23109 17.8066 7.48421 17.228 6.86602C16.671 6.27111 15.7851 6.07676 15.0038 6.0553ZM11.999 15.9067C11.2264 15.9067 10.4712 15.6776 9.82891 15.2484C9.18657 14.8192 8.68593 14.2092 8.39029 13.4954C8.09466 12.7817 8.0173 11.9963 8.16802 11.2387C8.31873 10.481 8.69074 9.78498 9.23701 9.23872C9.78327 8.69246 10.4793 8.32044 11.2369 8.16973C11.9946 8.01902 12.78 8.09637 13.4937 8.392C14.2075 8.68764 14.8175 9.18828 15.2467 9.83062C15.6759 10.473 15.905 11.2281 15.905 12.0007C15.905 13.0366 15.4934 14.0301 14.7609 14.7626C14.0284 15.4952 13.0349 15.9067 11.999 15.9067ZM15.9216 8.90093C15.7671 8.9009 15.6161 8.85505 15.4876 8.76919C15.3592 8.68332 15.2591 8.5613 15.2 8.41855C15.1409 8.2758 15.1254 8.11874 15.1556 7.96721C15.1858 7.81569 15.2602 7.67651 15.3694 7.56727C15.4787 7.45804 15.6179 7.38366 15.7694 7.35353C15.921 7.3234 16.078 7.33888 16.2208 7.39802C16.3635 7.45715 16.4855 7.55728 16.5713 7.68574C16.6572 7.81421 16.703 7.96524 16.703 8.11973C16.703 8.22234 16.6828 8.32394 16.6435 8.41873C16.6042 8.51352 16.5466 8.59965 16.4741 8.67219C16.4015 8.74474 16.3154 8.80228 16.2206 8.84152C16.1258 8.88077 16.0242 8.90096 15.9216 8.90093Z" fill="#FEFEFE"/>
</svg>
