<svg width="24" height="24" viewBox="0 0 24 24" fill="none" xmlns="http://www.w3.org/2000/svg">
<path d="M12 0C9.62663 0 7.30655 0.703788 5.33316 2.02236C3.35977 3.34094 1.8217 5.21508 0.913451 7.4078C0.00519953 9.60051 -0.232441 12.0133 0.230582 14.3411C0.693604 16.6689 1.83649 18.807 3.51472 20.4853C5.19295 22.1635 7.33115 23.3064 9.65892 23.7694C11.9867 24.2324 14.3995 23.9948 16.5922 23.0865C18.7849 22.1783 20.6591 20.6402 21.9776 18.6668C23.2962 16.6934 24 14.3734 24 12C23.9988 8.81775 22.7342 5.76618 20.484 3.51599C18.2338 1.2658 15.1822 0.00115135 12 0ZM17.56 9.528C16.7155 9.52932 15.8864 9.30268 15.16 8.872V14.84C15.1606 15.4127 15.0482 15.9799 14.8293 16.5092C14.6103 17.0384 14.2892 17.5193 13.8842 17.9242C13.4793 18.3292 12.9984 18.6503 12.4692 18.8693C11.9399 19.0882 11.3727 19.2006 10.8 19.2C10.4882 19.1997 10.1773 19.1676 9.872 19.104C8.82032 18.8753 7.8903 18.266 7.2608 17.393C6.63129 16.5201 6.34675 15.4452 6.4619 14.3751C6.57705 13.305 7.08375 12.3153 7.88456 11.5963C8.68537 10.8772 9.72375 10.4797 10.8 10.48V12.816C10.4988 12.8165 10.2013 12.8834 9.92891 13.012C9.65649 13.1406 9.4158 13.3277 9.224 13.56C9.03023 13.7986 8.89348 14.0783 8.82416 14.3777C8.75485 14.6772 8.75479 14.9885 8.824 15.288C8.90227 15.6638 9.08855 16.0086 9.35998 16.28C9.63142 16.5515 9.9762 16.7377 10.352 16.816C10.6486 16.8848 10.957 16.8855 11.254 16.8181C11.5509 16.7507 11.8288 16.6169 12.0666 16.4268C12.3045 16.2366 12.4962 15.9951 12.6274 15.7203C12.7585 15.4455 12.8258 15.1445 12.824 14.84V4.864H12.832C12.832 4.84 12.824 4.824 12.824 4.8H15.16C15.1619 5.43595 15.4154 6.04531 15.865 6.495C16.3147 6.94468 16.9241 7.19813 17.56 7.2L17.56 9.528Z" fill="#FEFEFE"/>
</svg>
