<svg width="24" height="24" viewBox="0 0 24 24" fill="none" xmlns="http://www.w3.org/2000/svg">
<path d="M12 0C9.62663 0 7.30655 0.703788 5.33316 2.02236C3.35977 3.34094 1.8217 5.21508 0.913451 7.4078C0.00519938 9.60051 -0.232441 12.0133 0.230582 14.3411C0.693605 16.6689 1.83649 18.807 3.51472 20.4853C5.19295 22.1635 7.33115 23.3064 9.65892 23.7694C11.9867 24.2324 14.3995 23.9948 16.5922 23.0865C18.7849 22.1783 20.6591 20.6402 21.9776 18.6668C23.2962 16.6934 24 14.3734 24 12C24 8.8174 22.7357 5.76515 20.4853 3.51472C18.2348 1.26428 15.1826 0 12 0ZM18.1768 8.8421C18.1768 8.97789 18.1879 9.11368 18.1879 9.25421C18.1879 13.4653 14.9811 18.3237 9.11527 18.3237C7.37962 18.3306 5.67927 17.8337 4.22053 16.8932C4.47348 16.9248 4.72825 16.9395 4.98316 16.9374C6.41381 16.9375 7.80336 16.4589 8.93053 15.5779C8.26631 15.5583 7.62444 15.3336 7.09297 14.9347C6.5615 14.5359 6.16648 13.9823 5.96211 13.35C6.16119 13.3894 6.36393 13.4074 6.56685 13.4037C6.84866 13.4061 7.12954 13.3711 7.40211 13.2995C6.68133 13.1503 6.03394 12.7574 5.56892 12.1868C5.1039 11.6162 4.84965 10.9029 4.84895 10.1668V10.1321C5.29045 10.3768 5.78436 10.5117 6.28895 10.5253C5.61291 10.0735 5.13492 9.38065 4.95267 8.58827C4.77042 7.79588 4.89768 6.9638 5.30842 6.2621C6.10723 7.24908 7.10531 8.05639 8.23743 8.6313C9.36955 9.2062 10.6102 9.53575 11.8784 9.59842C11.8269 9.35981 11.802 9.11621 11.8042 8.8721C11.8037 8.23257 11.9956 7.60767 12.355 7.07869C12.7144 6.54971 13.2247 6.14112 13.8195 5.90607C14.4142 5.67102 15.066 5.6204 15.6899 5.76077C16.3138 5.90114 16.8811 6.22603 17.3179 6.69316C18.0307 6.55298 18.7143 6.29184 19.3389 5.92105C19.1032 6.66034 18.6043 7.28737 17.9368 7.68316C18.57 7.60447 19.1885 7.43483 19.7732 7.17947C19.3471 7.82655 18.8061 8.39007 18.1768 8.8421Z" fill="#FEFEFE"/>
</svg>
