<svg width="24" height="24" viewBox="0 0 24 24" fill="none" xmlns="http://www.w3.org/2000/svg">
<path d="M15.5167 11.5609L10.0154 8.81029C9.97347 8.78932 9.92686 8.77942 9.88 8.78153C9.83315 8.78364 9.78761 8.79769 9.74771 8.82234C9.70782 8.847 9.67488 8.88144 9.65204 8.9224C9.62919 8.96336 9.6172 9.00948 9.61719 9.05639V14.5576C9.6172 14.6045 9.62919 14.6506 9.65204 14.6916C9.67488 14.7325 9.70782 14.767 9.74771 14.7916C9.78761 14.8163 9.83315 14.8303 9.88 14.8324C9.92686 14.8345 9.97347 14.8246 10.0154 14.8037L15.5165 12.0529C15.5622 12.03 15.6006 11.9949 15.6274 11.9515C15.6543 11.908 15.6685 11.858 15.6685 11.8069C15.6685 11.7559 15.6543 11.7058 15.6275 11.6624C15.6007 11.6189 15.5623 11.5838 15.5167 11.5609Z" fill="#FEFEFE"/>
<path d="M12 0C5.37259 0 0 5.37259 0 12C0 18.6274 5.37259 24 12 24C18.6274 24 24 18.6274 24 12C24 5.37259 18.6274 0 12 0ZM19.3648 16.0265C19.1455 16.9178 18.3936 17.594 17.4851 17.6862C15.3547 17.9321 14.1617 17.9321 12 17.9321C9.83832 17.9321 8.67659 17.9321 6.51491 17.6862C5.60637 17.594 4.8545 16.9178 4.63518 16.0265C4.32189 14.7355 4.32189 13.3524 4.32189 12C4.32189 10.6784 4.32189 9.26448 4.63518 7.97357C4.8545 7.08221 5.60637 6.40598 6.51491 6.31378C8.6453 6.06787 9.83832 6.06787 12 6.06787C14.1617 6.06787 15.3234 6.06787 17.4851 6.31378C18.3936 6.40598 19.1455 7.08221 19.3648 7.97357C19.6781 9.26448 19.6781 10.6784 19.6781 12C19.6781 13.3217 19.6781 14.7355 19.3648 16.0265Z" fill="#FEFEFE"/>
</svg>
